<?xml version="1.0" standalone="no"?><!DOCTYPE svg PUBLIC "-//W3C//DTD SVG 1.1//EN" "http://www.w3.org/Graphics/SVG/1.1/DTD/svg11.dtd"><svg t="1760699975238" class="icon" viewBox="0 0 1024 1024" version="1.1" xmlns="http://www.w3.org/2000/svg" p-id="7028" xmlns:xlink="http://www.w3.org/1999/xlink" width="200" height="200"><path d="M71.8848 1024h161.792V625.82784L0 444.8256v506.75712C0 987.79136 26.95168 1024 71.8848 1024z" fill="#4285F4" p-id="7029"></path><path d="M790.3232 1024h161.77152c35.9424 0 71.8848-27.15648 71.8848-72.3968V444.8256l-233.6768 180.98176V1024z" fill="#34A853" p-id="7030"></path><path d="M790.3232 318.1568v307.67104L1024 444.84608v-90.50112C1024 300.07296 979.02592 245.76 916.11136 245.76c-26.95168 0-44.93312 9.05216-62.89408 18.10432l-62.91456 54.272z" fill="#FBBC04" p-id="7031"></path><path d="M233.59488 625.82784V318.1568L512.2048 526.27456l278.58944-208.11776v307.67104L512.2048 833.9456 233.59488 625.82784z" fill="#EA4335" p-id="7032"></path><path d="M0 354.34496v90.50112l233.6768 180.98176V318.1568l-62.91456-54.29248C125.82912 236.70784 53.92384 245.76 17.98144 291.00032 8.97024 309.10464 0 327.20896 0 354.34496z" fill="#C5221F" p-id="7033"></path></svg>