<?xml version="1.0" standalone="no"?><!DOCTYPE svg PUBLIC "-//W3C//DTD SVG 1.1//EN" "http://www.w3.org/Graphics/SVG/1.1/DTD/svg11.dtd"><svg t="1760703104498" class="icon" viewBox="0 0 1024 1024" version="1.1" xmlns="http://www.w3.org/2000/svg" p-id="20811" xmlns:xlink="http://www.w3.org/1999/xlink" width="200" height="200"><path d="M606.48 205.58c0-6.69 5.43-12.12 12.12-12.12h73.98c7.4 0 13.39-6 13.39-13.39 0-7.4-6-13.39-13.39-13.39H318.22c-7.4 0-13.39 6-13.39 13.39 0 7.4 6 13.39 13.39 13.39h41.45c6.69 0 12.12 5.43 12.12 12.12 0 6.69-5.43 12.12-12.12 12.12H251.89c-7.4 0-13.39 6-13.39 13.39 0 7.4 6 13.39 13.39 13.39h385.2c7.4 0 13.39-6 13.39-13.39 0-7.4-6-13.39-13.39-13.39H618.6c-6.69 0-12.12-5.42-12.12-12.12zM855.18 490.81c0-6.69 5.43-12.12 12.12-12.12h73.98c7.4 0 13.39-6 13.39-13.39 0-7.4-6-13.39-13.39-13.39H566.92c-7.4 0-13.39 6-13.39 13.39 0 7.4 6 13.39 13.39 13.39h41.45c6.69 0 12.12 5.43 12.12 12.12 0 6.69-5.43 12.12-12.12 12.12H500.59c-7.4 0-13.39 6-13.39 13.39 0 7.4 6 13.39 13.39 13.39h385.2c7.4 0 13.39-6 13.39-13.39 0-7.4-6-13.39-13.39-13.39H867.3c-6.7 0-12.12-5.43-12.12-12.12zM606.65 820.05c0-6.69 5.43-12.12 12.12-12.12h73.98c7.4 0 13.39-6 13.39-13.39 0-7.4-6-13.39-13.39-13.39H318.39c-7.4 0-13.39 6-13.39 13.39 0 7.4 6 13.39 13.39 13.39h41.45c6.69 0 12.12 5.43 12.12 12.12 0 6.69-5.43 12.12-12.12 12.12H252.06c-7.4 0-13.39 6-13.39 13.39 0 7.4 6 13.39 13.39 13.39h385.2c7.4 0 13.39-6 13.39-13.39 0-7.4-6-13.39-13.39-13.39h-18.49c-6.69 0-12.12-5.43-12.12-12.12z" fill="#ECF9FF" p-id="20812"></path><path d="M891.01 395.07m-17.81 0a17.81 17.81 0 1 0 35.62 0 17.81 17.81 0 1 0-35.62 0Z" fill="#FFDB56" p-id="20813"></path><path d="M885.92 421.36c-14.5 0-26.29-11.8-26.29-26.29s11.8-26.29 26.29-26.29 26.29 11.8 26.29 26.29-11.79 26.29-26.29 26.29z m0-47.5c-11.69 0-21.21 9.51-21.21 21.21s9.51 21.21 21.21 21.21 21.21-9.51 21.21-21.21-9.52-21.21-21.21-21.21z" fill="#F76319" p-id="20814"></path><path d="M532.01 675.07m-17.81 0a17.81 17.81 0 1 0 35.62 0 17.81 17.81 0 1 0-35.62 0Z" fill="#FFDB56" p-id="20815"></path><path d="M526.92 701.36c-14.5 0-26.29-11.8-26.29-26.29s11.8-26.29 26.29-26.29 26.29 11.8 26.29 26.29-11.79 26.29-26.29 26.29z m0-47.5c-11.69 0-21.21 9.51-21.21 21.21s9.51 21.21 21.21 21.21c11.69 0 21.21-9.51 21.21-21.21s-9.52-21.21-21.21-21.21z" fill="#F76319" p-id="20816"></path><path d="M313.01 841.07m-17.81 0a17.81 17.81 0 1 0 35.62 0 17.81 17.81 0 1 0-35.62 0Z" fill="#FFDB56" p-id="20817"></path><path d="M307.92 867.36c-14.5 0-26.29-11.8-26.29-26.29s11.8-26.29 26.29-26.29 26.29 11.8 26.29 26.29-11.79 26.29-26.29 26.29z m0-47.5c-11.69 0-21.21 9.51-21.21 21.21s9.51 21.21 21.21 21.21 21.21-9.51 21.21-21.21-9.52-21.21-21.21-21.21zM727.17 435.07h-17.5v-17.5c0-2.35-1.9-4.25-4.25-4.25s-4.25 1.9-4.25 4.25v17.5h-17.5c-2.35 0-4.25 1.9-4.25 4.25s1.9 4.25 4.25 4.25h17.5v17.5c0 2.35 1.9 4.25 4.25 4.25s4.25-1.9 4.25-4.25v-17.5h17.5c2.35 0 4.25-1.9 4.25-4.25s-1.9-4.25-4.25-4.25zM151.17 515.07h-17.5v-17.5c0-2.35-1.9-4.25-4.25-4.25s-4.25 1.9-4.25 4.25v17.5h-17.5c-2.35 0-4.25 1.9-4.25 4.25s1.9 4.25 4.25 4.25h17.5v17.5c0 2.35 1.9 4.25 4.25 4.25s4.25-1.9 4.25-4.25v-17.5h17.5c2.35 0 4.25-1.9 4.25-4.25s-1.9-4.25-4.25-4.25zM407.17 685.07h-17.5v-17.5c0-2.35-1.9-4.25-4.25-4.25s-4.25 1.9-4.25 4.25v17.5h-17.5c-2.35 0-4.25 1.9-4.25 4.25s1.9 4.25 4.25 4.25h17.5v17.5c0 2.35 1.9 4.25 4.25 4.25s4.25-1.9 4.25-4.25v-17.5h17.5c2.35 0 4.25-1.9 4.25-4.25s-1.9-4.25-4.25-4.25zM764.79 790.93l-12.37 12.37-12.37-12.37a4.249 4.249 0 1 0-6.01 6.01l12.37 12.37-12.37 12.37a4.249 4.249 0 1 0 6.01 6.01l12.37-12.37 12.37 12.37a4.249 4.249 0 1 0 6.01-6.01l-12.37-12.37 12.37-12.37a4.249 4.249 0 1 0-6.01-6.01z" fill="#F76319" p-id="20818"></path><path d="M711.79 152.93l-12.37 12.37-12.37-12.37a4.249 4.249 0 1 0-6.01 6.01l12.37 12.37-12.37 12.37a4.249 4.249 0 1 0 6.01 6.01l12.37-12.37 12.37 12.37a4.249 4.249 0 1 0 6.01-6.01l-12.37-12.37 12.37-12.37a4.249 4.249 0 1 0-6.01-6.01z" fill="#F76319" p-id="20819"></path><path d="M865.67 628.82m-32 0a32 32 0 1 0 64 0 32 32 0 1 0-64 0Z" fill="#66FF33" opacity=".51" p-id="20820"></path><path d="M597.67 840.82m-32 0a32 32 0 1 0 64 0 32 32 0 1 0-64 0Z" fill="#6666FF" opacity=".51" p-id="20821"></path><path d="M288.67 183.82m-32 0a32 32 0 1 0 64 0 32 32 0 1 0-64 0Z" fill="#6666FF" opacity=".51" p-id="20822"></path><path d="M314.67 375.82h-52c-7.18 0-13-5.82-13-13s5.82-13 13-13h52c7.18 0 13 5.82 13 13s-5.82 13-13 13zM353.67 455.82h-91c-7.18 0-13-5.82-13-13s5.82-13 13-13h91c7.18 0 13 5.82 13 13s-5.82 13-13 13zM404.67 527.82h-142c-7.18 0-13-5.82-13-13s5.82-13 13-13h142c7.18 0 13 5.82 13 13s-5.82 13-13 13zM459.67 610.82h-197c-7.18 0-13-5.82-13-13s5.82-13 13-13h197c7.18 0 13 5.82 13 13s-5.82 13-13 13z" fill="#F76319" p-id="20823"></path><path d="M513.67 491.82c-7.18 0-13-5.82-13-13v-189c0-7.18 5.82-13 13-13s13 5.82 13 13v189c0 7.18-5.82 13-13 13zM833.67 283.82c0-27.61-22.39-50-50-50H614.99c-27.24 0-49.33 22.08-49.33 49.33v0.67h211v455h0.27c27.47 0 49.73-22.27 49.73-49.73V283.82h7.01z" fill="#FFDB56" p-id="20824"></path><path d="M516.39 807.58c-20.05 0-40.06-7.68-55.31-22.94l-0.99-0.99c-9.86-9.86-22.98-15.29-36.92-15.29H259.39c-43.13 0-78.22-35.09-78.22-78.22V307.57c0-43.13 35.09-78.22 78.22-78.22h148.04c16.81 0 33.48 5.56 46.93 15.64l28.35 21.26a52.065 52.065 0 0 0 71.91-8.9l4.28-5.29c15.15-18.7 38.54-29.54 62.61-28.96l149.3 3.76c20.52 0.48 39.74 8.84 54.1 23.54s22.27 34.11 22.27 54.66v386.58c0 20.55-7.91 39.96-22.27 54.66-14.36 14.7-33.58 23.06-54.12 23.54l-168.04 3.94a52.208 52.208 0 0 0-33.84 13.51c-14.96 13.55-33.76 20.29-52.52 20.29z m-257-552.23c-28.79 0-52.22 23.42-52.22 52.22v382.56c0 28.79 23.42 52.22 52.22 52.22h163.77c20.89 0 40.53 8.14 55.31 22.91l0.99 0.99c19.71 19.71 51.33 20.49 71.99 1.77a78.257 78.257 0 0 1 50.69-20.24l168.04-3.94c28.12-0.66 51-24.08 51-52.2V305.06c0-28.13-22.88-51.55-51-52.2l-149.3-3.76c-16.01-0.39-31.66 6.85-41.78 19.33l-4.28 5.29c-26.6 32.83-73.91 38.69-107.71 13.34l-28.35-21.26c-8.98-6.73-20.11-10.44-31.33-10.44H259.39z" fill="#F76319" p-id="20825"></path></svg>